# xmcd
#
# Track frame offsets:
#	150
#	17615
#	35813
#	53760
#	69277
#	81125
#	99791
#	116978
#	136582
#
# Disc length: 2048 seconds
#
# Revision: 1
# Processed by: cddbd v1.5.2PL0 Copyright (c) Steve Scherf et al.
# Submitted via: audiograbber 1.83.01
#
DISCID=6a07fe09
DTITLE=Jo Dee Messina - Unmistakable Love
DYEAR=2010
DGENRE=Country
TTITLE0=Hard Life
TTITLE1=Always Have, Always Will
TTITLE2=Unmistakable
TTITLE3=Welcome To The Rest Of My Life
TTITLE4=Treat Me Like A Woman Today
TTITLE5=I Think About Us
TTITLE6=I'm Home
TTITLE7=Because You Love Me (Acoustic)
TTITLE8=Stand Beside Me (Acoustic)
EXTD=
EXTT0=
EXTT1=
EXTT2=
EXTT3=
EXTT4=
EXTT5=
EXTT6=
EXTT7=
EXTT8=
PLAYORDER=
